<svg width="100" height="100" viewBox="0 0 100 100" fill="none" xmlns="http://www.w3.org/2000/svg">
<path fill-rule="evenodd" clip-rule="evenodd" d="M68.75 93.75C75.3804 93.75 81.7393 91.1161 86.4277 86.4277C91.1161 81.7393 93.75 75.3804 93.75 68.75C93.75 62.1196 91.1161 55.7607 86.4277 51.0723C81.7393 46.3839 75.3804 43.75 68.75 43.75C62.1196 43.75 55.7607 46.3839 51.0723 51.0723C46.3839 55.7607 43.75 62.1196 43.75 68.75C43.75 75.3804 46.3839 81.7393 51.0723 86.4277C55.7607 91.1161 62.1196 93.75 68.75 93.75ZM100 68.75C100 77.038 96.7076 84.9866 90.8471 90.8471C84.9866 96.7076 77.038 100 68.75 100C60.462 100 52.5134 96.7076 46.6529 90.8471C40.7924 84.9866 37.5 77.038 37.5 68.75C37.5 60.462 40.7924 52.5134 46.6529 46.6529C52.5134 40.7924 60.462 37.5 68.75 37.5C77.038 37.5 84.9866 40.7924 90.8471 46.6529C96.7076 52.5134 100 60.462 100 68.75Z" fill="#22B07A"/>
<path d="M58.9906 74.65C59.2844 78.375 62.2281 81.275 67.5094 81.625V84.375H69.8531V81.6063C75.3219 81.225 78.5156 78.3 78.5156 74.0625C78.5156 70.2 76.0781 68.2125 71.7031 67.1875L69.8531 66.75V59.25C72.2031 59.5187 73.6906 60.8 74.0469 62.575H78.1594C77.8656 58.9813 74.7844 56.175 69.8531 55.8688V53.125H67.5094V55.9375C62.8406 56.3937 59.6656 59.2 59.6656 63.175C59.6656 66.6875 62.0281 68.925 65.9594 69.8375L67.5094 70.2187V78.1688C65.1094 77.8062 63.5156 76.4813 63.1594 74.65H58.9844H58.9906ZM67.4906 66.1875C65.1844 65.6563 63.9344 64.5625 63.9344 62.925C63.9344 61.0875 65.2844 59.7125 67.5094 59.3125V66.1875H67.4906ZM70.1906 70.85C72.9969 71.5 74.2844 72.55 74.2844 74.4062C74.2844 76.525 72.6781 77.975 69.8531 78.2437V70.775L70.1906 70.85Z" fill="#22B07A"/>
<path d="M6.25 0C4.5924 0 3.00269 0.65848 1.83058 1.83058C0.65848 3.00269 0 4.5924 0 6.25L0 56.25C0 57.9076 0.65848 59.4973 1.83058 60.6694C3.00269 61.8415 4.5924 62.5 6.25 62.5H31.7688C32.1313 60.35 32.675 58.2625 33.3813 56.25H18.75C18.75 52.9348 17.433 49.7554 15.0888 47.4112C12.7446 45.067 9.56521 43.75 6.25 43.75V18.75C9.56521 18.75 12.7446 17.433 15.0888 15.0888C17.433 12.7446 18.75 9.56521 18.75 6.25H81.25C81.25 9.56521 82.567 12.7446 84.9112 15.0888C87.2554 17.433 90.4348 18.75 93.75 18.75V40.8C96.125 42.925 98.2312 45.35 100 48.0125V6.25C100 4.5924 99.3415 3.00269 98.1694 1.83058C96.9973 0.65848 95.4076 0 93.75 0L6.25 0Z" fill="#22B07A"/>
<path d="M62.4875 31.7689L62.5 31.2501C62.4987 29.0976 61.9416 26.9818 60.8826 25.1078C59.8236 23.2338 58.2985 21.665 56.4552 20.5534C54.6119 19.4418 52.5128 18.825 50.3612 18.7628C48.2095 18.7006 46.0782 19.1951 44.1738 20.1984C42.2694 21.2017 40.6563 22.6798 39.4908 24.4895C38.3253 26.2992 37.6469 28.3793 37.5213 30.5282C37.3957 32.677 37.8271 34.8219 38.7738 36.7551C39.7205 38.6883 41.1504 40.3443 42.925 41.5626C48.3235 36.4206 55.136 33.01 62.4875 31.7689Z" fill="#22B07A"/>
</svg>
