<svg width="100" height="100" viewBox="0 0 100 100" fill="none" xmlns="http://www.w3.org/2000/svg">
<path d="M49.9993 75L30.9681 48.125C27.853 44.4471 25.8469 39.9599 25.1835 35.1859C24.5201 30.412 25.2267 25.5478 27.2209 21.1599C29.2151 16.7719 32.4149 13.0409 36.4476 10.4012C40.4803 7.76156 45.18 6.32193 49.9993 6.25C56.6797 6.31602 63.0618 9.02686 67.7475 13.7888C72.4333 18.5507 75.041 24.9756 74.9993 31.6562C75.0019 37.4842 73.0177 43.1389 69.3743 47.6875L49.9993 75ZM49.9993 12.5C44.9738 12.5577 40.1767 14.6074 36.6612 18.1991C33.1457 21.7907 31.1993 26.6307 31.2493 31.6562C31.2702 36.2432 32.9205 40.6734 35.9056 44.1562L49.9993 64.125L64.468 43.75C67.2183 40.317 68.7271 36.055 68.7493 31.6562C68.7993 26.6307 66.8529 21.7907 63.3374 18.1991C59.8219 14.6074 55.0248 12.5577 49.9993 12.5Z" fill="#22B07A"/>
<path d="M50 34.375C53.4518 34.375 56.25 31.5768 56.25 28.125C56.25 24.6732 53.4518 21.875 50 21.875C46.5482 21.875 43.75 24.6732 43.75 28.125C43.75 31.5768 46.5482 34.375 50 34.375Z" fill="#22B07A"/>
<path d="M87.5 37.5H81.25V43.75H87.5V87.5H12.5V43.75H18.75V37.5H12.5C10.8424 37.5 9.25268 38.1585 8.08058 39.3306C6.90848 40.5027 6.25 42.0924 6.25 43.75V87.5C6.25 89.1576 6.90848 90.7473 8.08058 91.9194C9.25268 93.0915 10.8424 93.75 12.5 93.75H87.5C89.1576 93.75 90.7473 93.0915 91.9194 91.9194C93.0915 90.7473 93.75 89.1576 93.75 87.5V43.75C93.75 42.0924 93.0915 40.5027 91.9194 39.3306C90.7473 38.1585 89.1576 37.5 87.5 37.5Z" fill="#22B07A"/>
</svg>
