<svg width="100" height="100" viewBox="0 0 100 100" fill="none" xmlns="http://www.w3.org/2000/svg">
<path d="M92.1303 26.9502L60.8803 9.7627C60.4188 9.50884 59.9007 9.37573 59.374 9.37573C58.8474 9.37573 58.3292 9.50884 57.8678 9.7627L26.6178 26.9502C26.1278 27.22 25.7192 27.6163 25.4347 28.0978C25.1501 28.5793 25 29.1284 25 29.6877C25 30.247 25.1501 30.7961 25.4347 31.2776C25.7192 31.7591 26.1278 32.1554 26.6178 32.4252L56.249 48.7221V82.2189L46.7615 77.0002L43.749 82.4721L57.8678 90.2377C58.3291 90.4921 58.8472 90.6255 59.374 90.6255C59.9008 90.6255 60.419 90.4921 60.8803 90.2377L92.1303 73.0502C92.6204 72.7806 93.0292 72.3843 93.3139 71.9028C93.5987 71.4212 93.7489 70.8721 93.749 70.3127V29.6877C93.7489 29.1283 93.5987 28.5792 93.3139 28.0976C93.0292 27.6161 92.6204 27.2198 92.1303 26.9502ZM59.374 16.0689L84.1397 29.6877L59.374 43.3064L34.6084 29.6877L59.374 16.0689ZM87.499 68.4658L62.499 82.2158V48.7189L87.499 34.9689V68.4658Z" fill="#22B07A"/>
<path d="M31.25 50H6.25V43.75H31.25V50Z" fill="#22B07A"/>
<path d="M37.5 75H12.5V68.75H37.5V75Z" fill="#22B07A"/>
<path d="M43.75 62.5H18.75V56.25H43.75V62.5Z" fill="#22B07A"/>
</svg>
