<svg width="43" height="43" viewBox="0 0 43 43" fill="none" xmlns="http://www.w3.org/2000/svg">
<path d="M0 2.21875C0 1.84579 0.148158 1.4881 0.411881 1.22438C0.675604 0.960658 1.03329 0.8125 1.40625 0.8125H5.625C5.93868 0.812587 6.24333 0.917549 6.49049 1.11069C6.73766 1.30384 6.91315 1.57408 6.98906 1.87844L8.12813 6.4375H40.7812C40.9877 6.43769 41.1916 6.48335 41.3785 6.57124C41.5653 6.65912 41.7305 6.78708 41.8624 6.94601C41.9942 7.10494 42.0894 7.29096 42.1412 7.49083C42.193 7.69071 42.2002 7.89954 42.1622 8.1025L37.9434 30.6025C37.8831 30.9247 37.7121 31.2158 37.4599 31.4253C37.2078 31.6349 36.8903 31.7497 36.5625 31.75H11.25C10.9222 31.7497 10.6047 31.6349 10.3526 31.4253C10.1004 31.2158 9.92939 30.9247 9.86906 30.6025L5.65312 8.14469L4.52812 3.625H1.40625C1.03329 3.625 0.675604 3.47684 0.411881 3.21312C0.148158 2.9494 0 2.59171 0 2.21875ZM8.72437 9.25L12.4172 28.9375H35.3953L39.0881 9.25H8.72437ZM14.0625 31.75C12.5707 31.75 11.1399 32.3426 10.085 33.3975C9.03013 34.4524 8.4375 35.8832 8.4375 37.375C8.4375 38.8668 9.03013 40.2976 10.085 41.3525C11.1399 42.4074 12.5707 43 14.0625 43C15.5543 43 16.9851 42.4074 18.04 41.3525C19.0949 40.2976 19.6875 38.8668 19.6875 37.375C19.6875 35.8832 19.0949 34.4524 18.04 33.3975C16.9851 32.3426 15.5543 31.75 14.0625 31.75ZM33.75 31.75C32.2582 31.75 30.8274 32.3426 29.7725 33.3975C28.7176 34.4524 28.125 35.8832 28.125 37.375C28.125 38.8668 28.7176 40.2976 29.7725 41.3525C30.8274 42.4074 32.2582 43 33.75 43C35.2418 43 36.6726 42.4074 37.7275 41.3525C38.7824 40.2976 39.375 38.8668 39.375 37.375C39.375 35.8832 38.7824 34.4524 37.7275 33.3975C36.6726 32.3426 35.2418 31.75 33.75 31.75ZM14.0625 34.5625C14.8084 34.5625 15.5238 34.8588 16.0512 35.3863C16.5787 35.9137 16.875 36.6291 16.875 37.375C16.875 38.1209 16.5787 38.8363 16.0512 39.3637C15.5238 39.8912 14.8084 40.1875 14.0625 40.1875C13.3166 40.1875 12.6012 39.8912 12.0738 39.3637C11.5463 38.8363 11.25 38.1209 11.25 37.375C11.25 36.6291 11.5463 35.9137 12.0738 35.3863C12.6012 34.8588 13.3166 34.5625 14.0625 34.5625ZM33.75 34.5625C34.4959 34.5625 35.2113 34.8588 35.7387 35.3863C36.2662 35.9137 36.5625 36.6291 36.5625 37.375C36.5625 38.1209 36.2662 38.8363 35.7387 39.3637C35.2113 39.8912 34.4959 40.1875 33.75 40.1875C33.0041 40.1875 32.2887 39.8912 31.7613 39.3637C31.2338 38.8363 30.9375 38.1209 30.9375 37.375C30.9375 36.6291 31.2338 35.9137 31.7613 35.3863C32.2887 34.8588 33.0041 34.5625 33.75 34.5625Z" fill="#202120"/>
</svg>
