<svg width="212" height="17" viewBox="0 0 212 17" fill="none" xmlns="http://www.w3.org/2000/svg">
<path d="M113.473 10.2253V10.9695C113.473 13.1085 112.368 14.3814 109.76 14.3814H98.2668C98.2308 14.3869 98.1941 14.3839 98.1595 14.3725C98.125 14.3612 98.0935 14.3419 98.0678 14.3162C98.0421 14.2904 98.0228 14.259 98.0115 14.2244C98.0002 14.1898 97.9972 14.153 98.0027 14.117V2.26702C97.9972 2.23104 98.0002 2.19426 98.0115 2.15967C98.0228 2.12507 98.0421 2.09363 98.0678 2.06789C98.0935 2.04215 98.125 2.02283 98.1595 2.01151C98.1941 2.00018 98.2308 1.99716 98.2668 2.00269H109.642C111.986 2.00269 113.034 2.99494 113.034 5.18682V5.50402C113.034 6.63453 112.718 7.43157 111.86 7.85451V8.10256C112.986 8.50922 113.473 9.25341 113.473 10.2253ZM109.289 4.44264H100.79V6.93545H109.289C109.849 6.93545 110.321 6.86632 110.321 5.87407V5.46742C110.321 4.44264 109.849 4.44264 109.289 4.44264ZM110.743 10.2091C110.743 9.46486 110.357 9.16394 109.569 9.16394H100.79V11.9252H109.569C110.357 11.9252 110.743 11.6771 110.743 10.9004V10.2091Z" fill="#10395C"/>
<path d="M130.068 12.1906V14.1019C130.072 14.1399 130.067 14.1781 130.054 14.2141C130.041 14.25 130.021 14.2827 129.994 14.3099C129.967 14.3371 129.935 14.358 129.899 14.3712C129.864 14.3845 129.825 14.3897 129.787 14.3866H115.877C115.839 14.3897 115.801 14.3845 115.765 14.3712C115.729 14.358 115.697 14.3371 115.67 14.3099C115.644 14.2827 115.623 14.25 115.61 14.2141C115.598 14.1781 115.593 14.1399 115.597 14.1019V2.28848C115.593 2.25053 115.598 2.21223 115.61 2.17629C115.623 2.14035 115.644 2.10764 115.67 2.08049C115.697 2.05333 115.729 2.03239 115.765 2.01914C115.801 2.00589 115.839 2.00067 115.877 2.00382H118.12C118.294 2.00382 118.384 2.10956 118.384 2.28848V11.9263H129.787C129.824 11.9213 129.861 11.9246 129.896 11.9359C129.932 11.9472 129.964 11.9662 129.991 11.9915C130.017 12.0169 130.038 12.0479 130.052 12.0823C130.065 12.1168 130.071 12.1538 130.068 12.1906Z" fill="#10395C"/>
<path d="M140.808 11.9248H132.825V14.381H140.808V11.9248Z" fill="#10395C"/>
<path d="M129.885 6.95679H140.809V9.43333H129.885" fill="#10395C"/>
<path d="M140.808 2.00293H126.511V4.45915H140.808V2.00293Z" fill="#10395C"/>
<path d="M187.312 11.9248H179.329V14.381H187.312V11.9248Z" fill="#10395C"/>
<path d="M179.329 6.95679H190.249V9.43333H179.329" fill="#10395C"/>
<path d="M193.625 2.00293H179.329V4.45915H193.625V2.00293Z" fill="#10395C"/>
<path d="M143 14.1019V2.28848C142.997 2.25053 143.001 2.21223 143.014 2.17629C143.027 2.14035 143.047 2.10764 143.074 2.08049C143.101 2.05333 143.133 2.03239 143.169 2.01914C143.204 2.00589 143.243 2.00067 143.281 2.00382H145.893C146.051 2.00382 146.12 2.07296 146.279 2.21529L155.529 11.0601H155.773V2.28848C155.773 2.11362 155.863 2.00382 156.037 2.00382H158.28C158.318 2.00067 158.356 2.00589 158.392 2.01914C158.428 2.03239 158.46 2.05333 158.487 2.08049C158.513 2.10764 158.534 2.14035 158.547 2.17629C158.559 2.21223 158.564 2.25053 158.56 2.28848V14.1019C158.564 14.1399 158.559 14.1781 158.547 14.2141C158.534 14.25 158.513 14.2827 158.487 14.3099C158.46 14.3371 158.428 14.358 158.392 14.3712C158.356 14.3845 158.318 14.3897 158.28 14.3866H155.668C155.509 14.3866 155.44 14.3174 155.282 14.1751L146.031 5.33029H145.787V14.1019C145.787 14.2808 145.698 14.3866 145.523 14.3866H143.281C143.243 14.3897 143.204 14.3845 143.169 14.3712C143.133 14.358 143.101 14.3371 143.074 14.3099C143.047 14.2827 143.027 14.25 143.014 14.2141C143.001 14.1781 142.997 14.1399 143 14.1019Z" fill="#10395C"/>
<path d="M177.133 5.25708V11.1496C177.133 13.1829 176.187 14.4028 174.013 14.4028H161.118C161.081 14.406 161.042 14.4008 161.007 14.3875C160.971 14.3743 160.939 14.3533 160.912 14.3262C160.885 14.299 160.865 14.2663 160.852 14.2304C160.839 14.1944 160.834 14.1561 160.838 14.1182V2.28848C160.834 2.25053 160.839 2.21223 160.852 2.17629C160.865 2.14035 160.885 2.10764 160.912 2.08049C160.939 2.05333 160.971 2.03239 161.007 2.01914C161.042 2.00589 161.081 2.00067 161.118 2.00382H174.013C176.191 2.00382 177.133 3.2238 177.133 5.25708ZM174.379 5.43602C174.379 4.7081 174.05 4.44378 173.404 4.44378H163.625V11.9263H173.404C174.054 11.9263 174.367 11.6782 174.367 10.9544L174.379 5.43602Z" fill="#10395C"/>
<path d="M210.589 14.3825H208.558C208.457 14.3795 208.359 14.3501 208.272 14.2973C208.186 14.2446 208.115 14.1702 208.067 14.0816L206.104 11.1618H198.605V14.0978C198.605 14.2768 198.515 14.3825 198.341 14.3825H196.098C196.06 14.3857 196.022 14.3804 195.986 14.3672C195.951 14.3539 195.918 14.333 195.891 14.3058C195.865 14.2787 195.844 14.246 195.831 14.21C195.819 14.1741 195.814 14.1358 195.818 14.0978V2.28848C195.814 2.25053 195.819 2.21223 195.831 2.17629C195.844 2.14035 195.865 2.10764 195.891 2.08049C195.918 2.05333 195.951 2.03239 195.986 2.01914C196.022 2.00589 196.06 2.00067 196.098 2.00382H207.628C209.801 2.00382 210.748 3.2238 210.748 5.25709V7.96136C210.748 9.48226 210.204 10.5436 208.977 10.9666L210.923 13.9392C211.097 14.171 210.886 14.3825 210.589 14.3825ZM198.605 8.68929H206.982C207.632 8.68929 207.965 8.44122 207.965 7.71736V5.43602C207.965 4.71217 207.632 4.4641 206.982 4.4641H198.605V8.68929Z" fill="#10395C"/>
<path d="M5.852 14.112C4.872 14.112 3.98533 13.8973 3.192 13.468C2.408 13.0293 1.792 12.432 1.344 11.676C0.896 10.9107 0.672 10.052 0.672 9.1C0.672 8.148 0.896 7.294 1.344 6.538C1.792 5.77267 2.41267 5.17533 3.206 4.746C3.99933 4.30733 4.886 4.088 5.866 4.088C6.63133 4.088 7.33133 4.21867 7.966 4.48C8.60067 4.732 9.142 5.11 9.59 5.614L8.68 6.496C7.94267 5.72133 7.02333 5.334 5.922 5.334C5.194 5.334 4.536 5.49733 3.948 5.824C3.36 6.15067 2.898 6.60333 2.562 7.182C2.23533 7.75133 2.072 8.39067 2.072 9.1C2.072 9.80933 2.23533 10.4533 2.562 11.032C2.898 11.6013 3.36 12.0493 3.948 12.376C4.536 12.7027 5.194 12.866 5.922 12.866C7.014 12.866 7.93333 12.474 8.68 11.69L9.59 12.572C9.142 13.076 8.596 13.4587 7.952 13.72C7.31733 13.9813 6.61733 14.112 5.852 14.112ZM12.6792 7.826C12.9125 7.39667 13.2579 7.07 13.7152 6.846C14.1725 6.622 14.7279 6.51 15.3812 6.51V7.812C15.3065 7.80267 15.2039 7.798 15.0732 7.798C14.3452 7.798 13.7712 8.01733 13.3512 8.456C12.9405 8.88533 12.7352 9.50133 12.7352 10.304V14H11.3912V6.58H12.6792V7.826ZM23.6753 10.332C23.6753 10.4347 23.666 10.57 23.6473 10.738H17.6273C17.7113 11.3913 17.996 11.9187 18.4813 12.32C18.976 12.712 19.5873 12.908 20.3153 12.908C21.202 12.908 21.916 12.6093 22.4573 12.012L23.1993 12.88C22.8633 13.272 22.4433 13.5707 21.9393 13.776C21.4446 13.9813 20.8893 14.084 20.2733 14.084C19.4893 14.084 18.794 13.9253 18.1873 13.608C17.5806 13.2813 17.1093 12.8287 16.7733 12.25C16.4466 11.6713 16.2833 11.018 16.2833 10.29C16.2833 9.57133 16.442 8.92267 16.7593 8.344C17.086 7.76533 17.5293 7.31733 18.0893 7C18.6586 6.67333 19.298 6.51 20.0073 6.51C20.7166 6.51 21.3466 6.67333 21.8973 7C22.4573 7.31733 22.8913 7.76533 23.1993 8.344C23.5166 8.92267 23.6753 9.58533 23.6753 10.332ZM20.0073 7.644C19.3633 7.644 18.822 7.84 18.3833 8.232C17.954 8.624 17.702 9.13733 17.6273 9.772H22.3873C22.3126 9.14667 22.056 8.638 21.6173 8.246C21.188 7.84467 20.6513 7.644 20.0073 7.644ZM28.0385 6.51C29.0652 6.51 29.8492 6.762 30.3905 7.266C30.9412 7.77 31.2165 8.52133 31.2165 9.52V14H29.9425V13.02C29.7185 13.3653 29.3965 13.6313 28.9765 13.818C28.5658 13.9953 28.0758 14.084 27.5065 14.084C26.6758 14.084 26.0085 13.8833 25.5045 13.482C25.0098 13.0807 24.7625 12.5533 24.7625 11.9C24.7625 11.2467 25.0005 10.724 25.4765 10.332C25.9525 9.93067 26.7085 9.73 27.7445 9.73H29.8725V9.464C29.8725 8.88533 29.7045 8.442 29.3685 8.134C29.0325 7.826 28.5378 7.672 27.8845 7.672C27.4458 7.672 27.0165 7.74667 26.5965 7.896C26.1765 8.036 25.8218 8.22733 25.5325 8.47L24.9725 7.462C25.3552 7.154 25.8125 6.92067 26.3445 6.762C26.8765 6.594 27.4412 6.51 28.0385 6.51ZM27.7305 13.048C28.2438 13.048 28.6872 12.936 29.0605 12.712C29.4338 12.4787 29.7045 12.152 29.8725 11.732V10.696H27.8005C26.6618 10.696 26.0925 11.0787 26.0925 11.844C26.0925 12.2173 26.2372 12.5113 26.5265 12.726C26.8158 12.9407 27.2172 13.048 27.7305 13.048ZM37.8757 13.566C37.6797 13.734 37.437 13.8647 37.1477 13.958C36.8584 14.042 36.5597 14.084 36.2517 14.084C35.505 14.084 34.9264 13.8833 34.5157 13.482C34.105 13.0807 33.8997 12.5067 33.8997 11.76V7.686H32.6397V6.58H33.8997V4.956H35.2437V6.58H37.3717V7.686H35.2437V11.704C35.2437 12.1053 35.3417 12.4133 35.5377 12.628C35.743 12.8427 36.0324 12.95 36.4057 12.95C36.8164 12.95 37.1664 12.8333 37.4557 12.6L37.8757 13.566ZM45.9605 10.332C45.9605 10.4347 45.9511 10.57 45.9325 10.738H39.9125C39.9965 11.3913 40.2811 11.9187 40.7665 12.32C41.2611 12.712 41.8725 12.908 42.6005 12.908C43.4871 12.908 44.2011 12.6093 44.7425 12.012L45.4845 12.88C45.1485 13.272 44.7285 13.5707 44.2245 13.776C43.7298 13.9813 43.1745 14.084 42.5585 14.084C41.7745 14.084 41.0791 13.9253 40.4725 13.608C39.8658 13.2813 39.3945 12.8287 39.0585 12.25C38.7318 11.6713 38.5685 11.018 38.5685 10.29C38.5685 9.57133 38.7271 8.92267 39.0445 8.344C39.3711 7.76533 39.8145 7.31733 40.3745 7C40.9438 6.67333 41.5831 6.51 42.2925 6.51C43.0018 6.51 43.6318 6.67333 44.1825 7C44.7425 7.31733 45.1765 7.76533 45.4845 8.344C45.8018 8.92267 45.9605 9.58533 45.9605 10.332ZM42.2925 7.644C41.6485 7.644 41.1071 7.84 40.6685 8.232C40.2391 8.624 39.9871 9.13733 39.9125 9.772H44.6725C44.5978 9.14667 44.3411 8.638 43.9025 8.246C43.4731 7.84467 42.9365 7.644 42.2925 7.644ZM54.8267 3.612V14H53.5387V12.824C53.2401 13.2347 52.8621 13.5473 52.4047 13.762C51.9474 13.9767 51.4434 14.084 50.8927 14.084C50.1741 14.084 49.5301 13.9253 48.9607 13.608C48.3914 13.2907 47.9434 12.8473 47.6167 12.278C47.2994 11.6993 47.1407 11.0367 47.1407 10.29C47.1407 9.54333 47.2994 8.88533 47.6167 8.316C47.9434 7.74667 48.3914 7.30333 48.9607 6.986C49.5301 6.66867 50.1741 6.51 50.8927 6.51C51.4247 6.51 51.9147 6.61267 52.3627 6.818C52.8107 7.014 53.1841 7.308 53.4827 7.7V3.612H54.8267ZM51.0047 12.908C51.4714 12.908 51.8961 12.8007 52.2787 12.586C52.6614 12.362 52.9601 12.054 53.1747 11.662C53.3894 11.2607 53.4967 10.8033 53.4967 10.29C53.4967 9.77667 53.3894 9.324 53.1747 8.932C52.9601 8.53067 52.6614 8.22267 52.2787 8.008C51.8961 7.79333 51.4714 7.686 51.0047 7.686C50.5287 7.686 50.0994 7.79333 49.7167 8.008C49.3434 8.22267 49.0447 8.53067 48.8207 8.932C48.6061 9.324 48.4987 9.77667 48.4987 10.29C48.4987 10.8033 48.6061 11.2607 48.8207 11.662C49.0447 12.054 49.3434 12.362 49.7167 12.586C50.0994 12.8007 50.5287 12.908 51.0047 12.908ZM65.0635 6.51C65.7821 6.51 66.4261 6.66867 66.9955 6.986C67.5648 7.30333 68.0081 7.74667 68.3255 8.316C68.6521 8.88533 68.8155 9.54333 68.8155 10.29C68.8155 11.0367 68.6521 11.6993 68.3255 12.278C68.0081 12.8473 67.5648 13.2907 66.9955 13.608C66.4261 13.9253 65.7821 14.084 65.0635 14.084C64.5128 14.084 64.0088 13.9767 63.5515 13.762C63.0941 13.5473 62.7161 13.2347 62.4175 12.824V14H61.1295V3.612H62.4735V7.7C62.7721 7.308 63.1455 7.014 63.5935 6.818C64.0415 6.61267 64.5315 6.51 65.0635 6.51ZM64.9515 12.908C65.4275 12.908 65.8521 12.8007 66.2255 12.586C66.6081 12.362 66.9068 12.054 67.1215 11.662C67.3455 11.2607 67.4575 10.8033 67.4575 10.29C67.4575 9.77667 67.3455 9.324 67.1215 8.932C66.9068 8.53067 66.6081 8.22267 66.2255 8.008C65.8521 7.79333 65.4275 7.686 64.9515 7.686C64.4848 7.686 64.0601 7.79333 63.6775 8.008C63.2948 8.22267 62.9961 8.53067 62.7815 8.932C62.5668 9.324 62.4595 9.77667 62.4595 10.29C62.4595 10.8033 62.5668 11.2607 62.7815 11.662C62.9961 12.054 63.2948 12.362 63.6775 12.586C64.0601 12.8007 64.4848 12.908 64.9515 12.908ZM77.0334 6.58L73.4354 14.742C73.118 15.498 72.7447 16.03 72.3154 16.338C71.8954 16.646 71.3867 16.8 70.7894 16.8C70.4254 16.8 70.0707 16.7393 69.7254 16.618C69.3894 16.506 69.1094 16.338 68.8854 16.114L69.4594 15.106C69.842 15.47 70.2854 15.652 70.7894 15.652C71.116 15.652 71.3867 15.5633 71.6014 15.386C71.8254 15.218 72.026 14.924 72.2034 14.504L72.4414 13.986L69.1654 6.58H70.5654L73.1554 12.516L75.7174 6.58H77.0334Z" fill="#313131"/>
</svg>
