<svg width="20" height="15" viewBox="0 0 20 15" fill="none" xmlns="http://www.w3.org/2000/svg">
<path d="M19.8858 0.536C19.8009 0.374445 19.6736 0.239136 19.5174 0.144676C19.3613 0.0502152 19.1823 0.000190289 18.9998 0H0.999815C0.817658 0.000752409 0.639153 0.0511466 0.483495 0.145763C0.327838 0.240379 0.200917 0.375638 0.116383 0.536993C0.0318493 0.698348 -0.00710004 0.879695 0.00372392 1.06153C0.0145479 1.24337 0.0747356 1.41881 0.177815 1.569L9.17782 14.569C9.26956 14.7022 9.39231 14.8112 9.53551 14.8864C9.6787 14.9617 9.83805 15.001 9.99981 15.001C10.1616 15.001 10.3209 14.9617 10.4641 14.8864C10.6073 14.8112 10.7301 14.7022 10.8218 14.569L19.8218 1.569C19.9259 1.41912 19.9869 1.24357 19.9982 1.06144C20.0095 0.879317 19.9706 0.697581 19.8858 0.536ZM9.99981 12.243L2.90781 2H17.0918L9.99981 12.243Z" fill="#22B07A"/>
</svg>
