<svg width="84" height="84" viewBox="0 0 84 84" fill="none" xmlns="http://www.w3.org/2000/svg">
<path d="M70.3852 51.9703V36.5241L83.4844 14.6421C83.5962 14.4555 83.6564 14.2425 83.6591 14.0249C83.6617 13.8074 83.6066 13.593 83.4994 13.4037C83.3922 13.2144 83.2367 13.0569 83.0488 12.9472C82.8609 12.8376 82.6473 12.7797 82.4297 12.7795H40.1072C39.8947 12.7799 39.6858 12.8352 39.501 12.9402C39.3162 13.0452 39.1617 13.1962 39.0525 13.3786L14.8489 53.8083C14.737 53.9949 14.6767 54.2078 14.6741 54.4254C14.6714 54.6429 14.7265 54.8572 14.8337 55.0465C14.9409 55.2358 15.0965 55.3933 15.2844 55.5028C15.4723 55.6124 15.686 55.6701 15.9035 55.6702H58.226C58.4386 55.6701 58.6474 55.6149 58.8323 55.51C59.0171 55.4052 59.1716 55.2542 59.2807 55.0718L60.4219 53.1621C60.4606 53.1713 60.4992 53.1769 60.5386 53.1825V68.4516H42C41.6737 68.4516 41.3607 68.5812 41.13 68.812C40.8992 69.0427 40.7696 69.3557 40.7696 69.682V77.0649H35.3485V76.1016C35.3485 75.7752 35.2188 75.4623 34.9881 75.2315C34.7573 75.0007 34.4443 74.8711 34.118 74.8711H31.1283V65.5547C31.1283 65.2284 30.9987 64.9154 30.7679 64.6846C30.5372 64.4539 30.2242 64.3242 29.8978 64.3242H26.9321V61.3359C26.9321 61.0096 26.8024 60.6966 26.5717 60.4659C26.3409 60.2351 26.0279 60.1055 25.7016 60.1055H21.4828C21.1565 60.1055 20.8435 60.2351 20.6128 60.4659C20.382 60.6966 20.2524 61.0096 20.2524 61.3359V64.3242H11.5547V61.3359C11.5548 61.1743 11.523 61.0143 11.4612 60.865C11.3994 60.7156 11.3088 60.5799 11.1945 60.4657C11.0802 60.3514 10.9446 60.2608 10.7952 60.199C10.6459 60.1371 10.4859 60.1054 10.3242 60.1055H6.10549C5.77915 60.1055 5.46618 60.2351 5.23542 60.4659C5.00466 60.6966 4.87502 61.0096 4.87502 61.3359V64.3242H1.90784C1.5815 64.3242 1.26852 64.4539 1.03776 64.6846C0.807007 64.9154 0.677368 65.2284 0.677368 65.5547V82.4297C0.677368 82.756 0.807007 83.069 1.03776 83.2998C1.26852 83.5305 1.5815 83.6602 1.90784 83.6602H29.8978C30.2242 83.6602 30.5372 83.5305 30.7679 83.2998C30.9987 83.069 31.1283 82.756 31.1283 82.4297V81.5508H34.118C34.4443 81.5508 34.7573 81.4212 34.9881 81.1904C35.2188 80.9596 35.3485 80.6467 35.3485 80.3203V79.5258H42C42.3264 79.5258 42.6393 79.3961 42.8701 79.1654C43.1009 78.9346 43.2305 78.6217 43.2305 78.2953V70.9125H60.5414V72.7617H56.1652C56.0036 72.7616 55.8435 72.7934 55.6942 72.8552C55.5449 72.917 55.4092 73.0076 55.2949 73.1219C55.1806 73.2362 55.09 73.3719 55.0282 73.5212C54.9664 73.6705 54.9346 73.8306 54.9347 73.9922V76.9805H50.9381C50.6118 76.9805 50.2988 77.1101 50.0681 77.3409C49.8373 77.5716 49.7077 77.8846 49.7077 78.2109V82.4297C49.7077 82.756 49.8373 83.069 50.0681 83.2998C50.2988 83.5305 50.6118 83.6602 50.9381 83.6602H78.9281C79.2545 83.6602 79.5675 83.5305 79.7982 83.2998C80.029 83.069 80.1586 82.756 80.1586 82.4297V78.2109C80.1586 77.8846 80.029 77.5716 79.7982 77.3409C79.5675 77.1101 79.2545 76.9805 78.9281 76.9805H74.9309V73.9922C74.931 73.8306 74.8992 73.6705 74.8374 73.5212C74.7756 73.3719 74.685 73.2362 74.5707 73.1219C74.4564 73.0076 74.3207 72.917 74.1714 72.8552C74.0221 72.7934 73.862 72.7616 73.7004 72.7617H69.3305V53.1797C69.6223 53.1385 69.8894 52.9936 70.0831 52.7715C70.2768 52.5494 70.384 52.265 70.3852 51.9703ZM22.7133 62.5664H24.4711V64.3242H22.7133V62.5664ZM7.33596 62.5664H9.09377V64.3242H7.33596V62.5664ZM28.6674 81.1992H3.13831V66.7852H28.6674V81.1992ZM32.8861 79.0899H31.1283V77.332H32.8861V79.0899ZM67.9228 50.7399H61.9463V50.6182L67.9228 40.6338V50.7399ZM32.0691 53.2092L35.4364 47.5842H46.5633L43.196 53.2092H32.0691ZM36.9094 45.1233L40.2774 39.4983H51.4043L48.0364 45.1233H36.9094ZM26.2824 39.4983H37.4093L34.0421 45.1233H22.9144L26.2824 39.4983ZM31.1227 31.4124H42.2503L38.8824 37.0374H27.7554L31.1227 31.4124ZM35.9637 23.3264H47.0906L43.7234 28.9514H32.5964L35.9637 23.3264ZM65.9267 15.2405L62.5587 20.8655H51.4317L54.7997 15.2405H65.9267ZM61.0856 23.3264L57.7184 28.9514H46.5914L49.9587 23.3264H61.0856ZM72.0544 28.9514H60.5857L63.9537 23.3264H75.4181L72.0544 28.9514ZM67.2134 37.0374H55.7524L59.1197 31.4124H70.5842L67.2134 37.0374ZM52.8809 37.0374H41.7504L45.1177 31.4124H56.2446L52.8809 37.0374ZM54.2752 39.4983H65.7368L62.3689 45.1233H50.9079L54.2752 39.4983ZM76.8947 20.8655H65.4267L68.794 15.2405H80.2592L76.8947 20.8655ZM40.8082 15.2405H51.9317L48.5644 20.8655H37.4367L40.8082 15.2405ZM21.4449 47.5842H32.5683L29.201 53.2092H18.0741L21.4449 47.5842ZM57.5313 53.2092H46.0634L49.4314 47.5842H60.8923L57.5313 53.2092ZM77.6977 81.1992H52.1686V79.4414H77.6977V81.1992ZM72.4699 76.9805H57.3985V75.2227H72.4728L72.4699 76.9805ZM63.0024 72.7617V53.2008H66.8696V72.7617H63.0024Z" fill="#313131"/>
<path d="M1.57031 14.4023H3.59109C3.8086 16.1036 4.47798 17.7155 5.52961 19.0704L4.09453 20.5055C3.87114 20.7383 3.74789 21.0494 3.75123 21.3721C3.75456 21.6947 3.88422 22.0032 4.11238 22.2314C4.34054 22.4595 4.64904 22.5892 4.97169 22.5925C5.29434 22.5959 5.60545 22.4726 5.83828 22.2492L7.27336 20.8141C8.62823 21.8658 10.2401 22.5352 11.9414 22.7527V24.7734C11.9414 25.0998 12.071 25.4128 12.3018 25.6435C12.5326 25.8743 12.8455 26.0039 13.1719 26.0039C13.4982 26.0039 13.8112 25.8743 14.0419 25.6435C14.2727 25.4128 14.4023 25.0998 14.4023 24.7734V22.7527C16.1036 22.5352 17.7155 21.8658 19.0704 20.8141L20.5055 22.2492C20.6191 22.3676 20.7552 22.4622 20.9058 22.5273C21.0564 22.5925 21.2185 22.6269 21.3826 22.6286C21.5467 22.6303 21.7095 22.5992 21.8614 22.5372C22.0134 22.4752 22.1514 22.3835 22.2674 22.2674C22.3835 22.1514 22.4752 22.0134 22.5372 21.8614C22.5992 21.7095 22.6303 21.5467 22.6286 21.3826C22.6269 21.2185 22.5925 21.0564 22.5273 20.9058C22.4622 20.7552 22.3676 20.6191 22.2492 20.5055L20.8141 19.0704C21.8658 17.7155 22.5352 16.1036 22.7527 14.4023H24.7734C25.0998 14.4023 25.4128 14.2727 25.6435 14.0419C25.8743 13.8112 26.0039 13.4982 26.0039 13.1719C26.0039 12.8455 25.8743 12.5326 25.6435 12.3018C25.4128 12.071 25.0998 11.9414 24.7734 11.9414H22.7527C22.5352 10.2401 21.8658 8.62823 20.8141 7.27336L22.2492 5.83828C22.3676 5.72467 22.4622 5.58856 22.5273 5.43794C22.5925 5.28732 22.6269 5.12522 22.6286 4.96112C22.6303 4.79703 22.5992 4.63425 22.5372 4.48231C22.4752 4.33038 22.3835 4.19235 22.2674 4.07631C22.1514 3.96027 22.0134 3.86856 21.8614 3.80654C21.7095 3.74453 21.5467 3.71346 21.3826 3.71516C21.2185 3.71685 21.0564 3.75128 20.9058 3.81643C20.7552 3.88157 20.6191 3.97612 20.5055 4.09453L19.0704 5.52891C17.7153 4.4778 16.1035 3.80869 14.4023 3.59109V1.57031C14.4023 1.24397 14.2727 0.930997 14.0419 0.70024C13.8112 0.469482 13.4982 0.339844 13.1719 0.339844C12.8455 0.339844 12.5326 0.469482 12.3018 0.70024C12.071 0.930997 11.9414 1.24397 11.9414 1.57031V3.59109C10.2403 3.80869 8.62847 4.4778 7.27336 5.52891L5.83828 4.09453C5.60545 3.87114 5.29434 3.74789 4.97169 3.75123C4.64904 3.75456 4.34054 3.88422 4.11238 4.11238C3.88422 4.34054 3.75456 4.64904 3.75123 4.97169C3.74789 5.29434 3.87114 5.60545 4.09453 5.83828L5.52961 7.27336C4.47798 8.62823 3.8086 10.2401 3.59109 11.9414H1.57031C1.24397 11.9414 0.930997 12.071 0.70024 12.3018C0.469482 12.5326 0.339844 12.8455 0.339844 13.1719C0.339844 13.4982 0.469482 13.8112 0.70024 14.0419C0.930997 14.2727 1.24397 14.4023 1.57031 14.4023ZM13.1719 5.96484C14.5973 5.96484 15.9907 6.38753 17.1759 7.17945C18.3611 7.97137 19.2848 9.09695 19.8303 10.4139C20.3758 11.7308 20.5185 13.1799 20.2404 14.5779C19.9623 15.9759 19.2759 17.2601 18.268 18.268C17.2601 19.2759 15.9759 19.9623 14.5779 20.2404C13.1799 20.5185 11.7308 20.3758 10.4139 19.8303C9.09695 19.2848 7.97137 18.3611 7.17945 17.1759C6.38753 15.9907 5.96484 14.5973 5.96484 13.1719C5.96689 11.2611 6.72686 9.42913 8.078 8.078C9.42913 6.72686 11.2611 5.96689 13.1719 5.96484Z" fill="#313131"/>
<path d="M6.12659 71.5313C5.80025 71.5313 5.48727 71.6609 5.25651 71.8916C5.02576 72.1224 4.89612 72.4354 4.89612 72.7617V77.1562C4.89612 77.4826 5.02576 77.7956 5.25651 78.0263C5.48727 78.2571 5.80025 78.3867 6.12659 78.3867C6.45293 78.3867 6.7659 78.2571 6.99666 78.0263C7.22742 77.7956 7.35706 77.4826 7.35706 77.1562V72.7617C7.35715 72.6001 7.32539 72.4401 7.26358 72.2907C7.20178 72.1414 7.11114 72.0057 6.99687 71.8914C6.88259 71.7772 6.74691 71.6865 6.59758 71.6247C6.44825 71.5629 6.2882 71.5312 6.12659 71.5313Z" fill="#313131"/>
<path d="M17.3962 72.7617H16.139L17.0658 70.0898C17.1704 69.782 17.1489 69.4454 17.0061 69.1533C16.8634 68.8613 16.6108 68.6376 16.3036 68.5312C15.9965 68.4248 15.6597 68.4442 15.3668 68.5853C15.074 68.7263 14.8488 68.9775 14.7405 69.284L13.2478 73.5907C13.1834 73.776 13.1643 73.9741 13.1921 74.1683C13.2198 74.3626 13.2937 74.5474 13.4075 74.7073C13.5212 74.8671 13.6716 74.9975 13.846 75.0874C14.0204 75.1773 14.2138 75.2241 14.4101 75.224H15.6673L14.7405 77.8959C14.6876 78.0485 14.6652 78.2101 14.6747 78.3714C14.6842 78.5326 14.7254 78.6905 14.7959 78.8358C14.8665 78.9812 14.9649 79.1112 15.0857 79.2185C15.2065 79.3258 15.3473 79.4082 15.4999 79.4611C15.6292 79.5073 15.7655 79.531 15.9028 79.5314C16.1586 79.5313 16.408 79.4516 16.6165 79.3033C16.8249 79.155 16.9819 78.9455 17.0658 78.7038L18.5585 74.3972C18.6229 74.2118 18.642 74.0137 18.6142 73.8195C18.5865 73.6252 18.5126 73.4404 18.3988 73.2806C18.2851 73.1207 18.1347 72.9904 17.9603 72.9005C17.7859 72.8106 17.5925 72.7637 17.3962 72.7638V72.7617Z" fill="#313131"/>
</svg>
