<svg width="90" height="90" viewBox="0 0 90 90" fill="none" xmlns="http://www.w3.org/2000/svg">
<g clip-path="url(#clip0)">
<path d="M88.2421 78.7611H82.48V66.0163H88.2421C89.2127 66.0163 89.9999 65.2293 89.9999 64.2585C89.9999 63.2876 89.2129 62.5007 88.2421 62.5007H82.48V56.535C82.48 55.5642 81.6928 54.7772 80.7222 54.7772H73.7327C72.7619 54.7772 71.9749 55.5642 71.9749 56.535V58.1889H60.6197C55.6837 58.1889 51.668 62.2045 51.668 67.1404V70.6374H39.2301C36.6442 70.6374 34.5401 68.5335 34.5401 65.9475V60.752L38.8365 62.501C41.5255 63.5954 44.5899 62.6005 46.1223 60.1345L49.5715 54.584L55.9207 53.0143C58.7344 52.3187 60.6269 49.7156 60.421 46.8242L59.9557 40.3011L64.1666 35.2961C66.0311 33.0798 66.0311 29.8629 64.1666 27.6468L59.9556 22.6416L60.4209 16.1187C60.6272 13.2277 58.7346 10.6244 55.9207 9.92862L49.5715 8.35907L46.1225 2.80861C44.59 0.342583 41.5256 -0.652513 38.8367 0.442075L32.7827 2.90652L26.7282 0.442251C24.0395 -0.652337 20.9751 0.342934 19.4426 2.80896L15.9935 8.35925L9.64391 9.92897C6.83019 10.6247 4.93773 13.2279 5.14392 16.1189L5.60904 22.642L1.39838 27.647C-0.466127 29.8631 -0.466127 33.0802 1.39838 35.2963L5.60921 40.3013L5.1441 46.8242C4.93773 49.7154 6.83054 52.3187 9.64426 53.0143L15.9936 54.584L19.443 60.1345C20.5573 61.9276 22.481 62.9429 24.4819 62.9429C25.2329 62.9429 25.9949 62.7998 26.7286 62.5012L31.0248 60.7522V65.9477C31.0248 70.4721 34.7057 74.153 39.2303 74.153H51.6682V77.6364C51.6682 82.5724 55.6839 86.5879 60.6198 86.5879H71.9751V88.2418C71.9751 89.2127 72.7621 89.9996 73.7329 89.9996H80.7223C81.693 89.9996 82.4801 89.2127 82.4801 88.2418V82.2765H88.2422C89.2129 82.2765 90 81.4896 90 80.5187C89.9997 79.5481 89.2127 78.7611 88.2421 78.7611ZM25.403 59.245C24.3056 59.6922 23.0544 59.2856 22.4286 58.2787L18.6021 52.1213C18.3602 51.7321 17.9758 51.4526 17.5309 51.3426L10.4878 49.6013C9.33911 49.3174 8.5662 48.2545 8.65057 47.0743L9.16667 39.8404C9.19936 39.3844 9.05276 38.9335 8.7585 38.5837L4.08853 33.0331C3.32723 32.1283 3.32723 30.8149 4.08853 29.9102L8.75833 24.3595C9.05259 24.0097 9.19919 23.5588 9.16649 23.1029L8.65022 15.8688C8.56602 14.6884 9.33876 13.6256 10.4873 13.3418L17.5305 11.6005C17.9754 11.4906 18.3598 11.2111 18.6017 10.8219L22.4281 4.66451C22.8832 3.93238 23.6686 3.51789 24.4854 3.51789C24.792 3.51789 25.1031 3.57625 25.4027 3.69824L32.1198 6.43234C32.5448 6.60513 33.0203 6.60513 33.4453 6.43234L40.1623 3.69824C41.2602 3.25105 42.5111 3.65746 43.1369 4.66451L46.9634 10.8221C47.2053 11.2113 47.5897 11.4908 48.0346 11.6008L55.0775 13.3419C56.2262 13.626 56.9991 14.6888 56.9147 15.869L56.3986 23.103C56.366 23.5592 56.5126 24.0099 56.8068 24.3597L61.4768 29.9103C62.2381 30.8153 62.2381 32.1283 61.4768 33.0333L56.8068 38.5839C56.5126 38.9337 56.366 39.3846 56.3986 39.8406L56.9147 47.0745C56.9989 48.2548 56.2262 49.3178 55.0773 49.6017L48.0345 51.3428C47.5896 51.4528 47.2051 51.7321 46.9633 52.1215L43.1369 58.2789C42.5109 59.2858 41.2597 59.692 40.1623 59.2452L33.4701 56.5213C33.4668 56.5199 33.4633 56.5185 33.4599 56.5171L33.445 56.5111C33.4315 56.5056 33.4176 56.5018 33.404 56.4967C33.3661 56.4823 33.3283 56.4682 33.2893 56.4564C33.272 56.4513 33.2546 56.4476 33.2374 56.4431C33.1998 56.433 33.1623 56.4227 33.1238 56.4151C33.1001 56.4104 33.076 56.4079 33.0521 56.4042C33.0198 56.3993 32.9878 56.3933 32.9549 56.3902C32.9032 56.3851 32.8514 56.3828 32.7997 56.3822C32.7939 56.3822 32.7883 56.3814 32.7823 56.3814C32.7765 56.3814 32.7707 56.3822 32.7649 56.3822C32.713 56.3828 32.6612 56.3851 32.6097 56.3902C32.5768 56.3933 32.5448 56.3993 32.5125 56.4042C32.4886 56.4079 32.4645 56.4104 32.4408 56.4151C32.4023 56.4227 32.3646 56.4329 32.3272 56.4431C32.31 56.4476 32.2924 56.4511 32.2753 56.4564C32.2363 56.4682 32.1984 56.4824 32.1606 56.4967C32.147 56.5018 32.1331 56.5056 32.1196 56.5111L32.1047 56.5171C32.1013 56.5185 32.0978 56.5197 32.0945 56.5213L25.403 59.245ZM60.6198 83.0726C57.6224 83.0726 55.1836 80.634 55.1836 77.6366V67.1406C55.1836 64.1432 57.6223 61.7045 60.6198 61.7045H64.6533V72.3955C64.6533 73.3664 65.4403 74.1533 66.4111 74.1533C67.3818 74.1533 68.1689 73.3664 68.1689 72.3955V61.7045H71.9751V83.0726H60.6198ZM78.9645 86.4842H75.4906V58.2928H78.9645V86.4842Z" fill="#313131"/>
<path d="M68.0332 77.8801C67.9892 77.7746 67.9363 77.6726 67.8713 77.5759C67.8082 77.481 67.7343 77.3914 67.6535 77.3105C67.5726 77.2279 67.4828 77.1558 67.3863 77.0908C67.2914 77.0275 67.1894 76.9728 67.084 76.9289C66.9767 76.885 66.866 76.8516 66.7552 76.8287C66.5285 76.783 66.2947 76.783 66.0679 76.8287C65.9554 76.8516 65.8447 76.885 65.7392 76.9289C65.6322 76.9728 65.5302 77.0273 65.4353 77.0908C65.3386 77.1558 65.249 77.2279 65.1679 77.3105C65.0871 77.3914 65.0133 77.481 64.9501 77.5759C64.8869 77.6726 64.8322 77.7746 64.7883 77.8801C64.7443 77.9855 64.7093 78.0963 64.6882 78.2088C64.6654 78.323 64.6531 78.4373 64.6531 78.5533C64.6531 78.6675 64.6654 78.7818 64.6882 78.8961C64.7093 79.0086 64.7443 79.1193 64.7883 79.2248C64.8322 79.3302 64.8869 79.4322 64.9501 79.5289C65.0133 79.6238 65.0871 79.7134 65.1679 79.7961C65.2488 79.8769 65.3386 79.9507 65.4353 80.014C65.5302 80.0773 65.6322 80.1318 65.7392 80.1757C65.8449 80.2197 65.9554 80.2531 66.0679 80.2759C66.1806 80.2988 66.2965 80.3111 66.4107 80.3111C66.525 80.3111 66.641 80.2988 66.7552 80.2759C66.866 80.2531 66.9767 80.2197 67.084 80.1757C67.1894 80.1318 67.2914 80.0773 67.3863 80.014C67.483 79.9507 67.5728 79.8769 67.6535 79.7961C67.7343 79.7134 67.8082 79.6238 67.8713 79.5289C67.9363 79.4322 67.9892 79.3302 68.0332 79.2248C68.0771 79.1193 68.1121 79.0086 68.1332 78.8961C68.156 78.7836 68.1684 78.6675 68.1684 78.5533C68.1684 78.4373 68.156 78.323 68.1332 78.2088C68.1123 78.0963 68.0771 77.9855 68.0332 77.8801Z" fill="#313131"/>
<path d="M54.9693 31.4717C54.9693 19.2379 45.0162 9.28479 32.7824 9.28479C20.5486 9.28479 10.5957 19.2379 10.5957 31.4717C10.5957 43.7055 20.5488 53.6586 32.7826 53.6586C45.0164 53.6586 54.9693 43.7059 54.9693 31.4717ZM14.1111 31.4717C14.1111 21.1762 22.4869 12.8002 32.7826 12.8002C43.0781 12.8002 51.454 21.1762 51.454 31.4717C51.454 41.7672 43.0782 50.1431 32.7826 50.1431C22.4869 50.1431 14.1111 41.7672 14.1111 31.4717Z" fill="#313131"/>
<path d="M45.8028 39.226C46.3013 38.393 46.0301 37.3136 45.1973 36.8152C44.3637 36.3165 43.2848 36.5879 42.7863 37.4208C40.6913 40.9213 36.866 43.096 32.8033 43.096C26.3938 43.096 21.1794 37.8815 21.1794 31.472C21.1794 25.0625 26.394 19.8481 32.8033 19.8481C33.7741 19.8481 34.5611 19.0612 34.5611 18.0903C34.5611 17.1195 33.7741 16.3325 32.8033 16.3325C24.4555 16.3325 17.6638 23.124 17.6638 31.472C17.6638 39.82 24.4553 46.6117 32.8033 46.6117C38.0954 46.6113 43.0765 43.7814 45.8028 39.226Z" fill="#313131"/>
<path d="M44.5199 33.2036C44.5638 33.3091 44.6183 33.411 44.6816 33.506C44.7467 33.6026 44.8187 33.6923 44.9013 33.7731C44.9822 33.854 45.0719 33.9278 45.1685 33.9929C45.2635 34.0562 45.3652 34.1106 45.4709 34.1546C45.5763 34.1985 45.6871 34.2319 45.7996 34.2548C45.9138 34.2776 46.0299 34.2882 46.1441 34.2882C46.2582 34.2882 46.3744 34.2776 46.4869 34.2548C46.5994 34.2319 46.7101 34.1985 46.8154 34.1546C46.9227 34.1106 47.0246 34.0562 47.1195 33.9929C47.2162 33.9278 47.3059 33.854 47.3867 33.7731C47.4678 33.6923 47.5416 33.6026 47.6047 33.506C47.668 33.411 47.7225 33.3091 47.7664 33.2036C47.8104 33.0964 47.8438 32.9856 47.8666 32.8749C47.8895 32.7606 47.9018 32.6446 47.9018 32.5304C47.9018 32.4161 47.8895 32.3001 47.8666 32.1876C47.8438 32.0751 47.8104 31.9644 47.7664 31.8589C47.7225 31.7517 47.668 31.6497 47.6047 31.5548C47.5416 31.4581 47.4678 31.3685 47.3867 31.2876C47.3059 31.2067 47.2162 31.1329 47.1195 31.0696C47.0246 31.0063 46.9227 30.9519 46.8154 30.9079C46.71 30.864 46.5994 30.8306 46.4869 30.8077C46.2601 30.762 46.0263 30.762 45.7996 30.8077C45.6869 30.8306 45.5762 30.864 45.4709 30.9079C45.3652 30.9519 45.2635 31.0063 45.1685 31.0696C45.0717 31.1329 44.982 31.2067 44.9013 31.2876C44.8187 31.3685 44.7467 31.4581 44.6816 31.5548C44.6183 31.6497 44.5638 31.7517 44.5199 31.8589C44.4759 31.9644 44.4426 32.0751 44.4197 32.1876C44.3968 32.3001 44.3865 32.4161 44.3865 32.5304C44.3865 32.6446 44.397 32.7606 44.4197 32.8749C44.4424 32.9856 44.4759 33.0964 44.5199 33.2036Z" fill="#313131"/>
</g>
<defs>
<clipPath id="clip0">
<rect width="90" height="90" fill="white"/>
</clipPath>
</defs>
</svg>
