<svg width="48" height="55" viewBox="0 0 48 55" fill="none" xmlns="http://www.w3.org/2000/svg">
<circle cx="24" cy="28" r="23.5" stroke="#22B07A"/>
<path d="M22.752 19.752H26.16V45H22.752V19.752ZM24.48 14.232C23.776 14.232 23.184 13.992 22.704 13.512C22.224 13.032 21.984 12.456 21.984 11.784C21.984 11.144 22.224 10.584 22.704 10.104C23.184 9.624 23.776 9.384 24.48 9.384C25.184 9.384 25.776 9.624 26.256 10.104C26.736 10.552 26.976 11.096 26.976 11.736C26.976 12.44 26.736 13.032 26.256 13.512C25.776 13.992 25.184 14.232 24.48 14.232Z" fill="#313131"/>
</svg>
