<svg width="40" height="40" viewBox="0 0 40 40" fill="none" xmlns="http://www.w3.org/2000/svg">
<rect width="40" height="40" fill="#22B07A"/>
<path fill-rule="evenodd" clip-rule="evenodd" d="M16.25 10H23.75C27.2013 10 30 12.7988 30 16.25V23.75C30 27.2013 27.2013 30 23.75 30H16.25C12.7988 30 10 27.2013 10 23.75V16.25C10 12.7988 12.7988 10 16.25 10ZM23.7499 28.125C26.1624 28.125 28.1248 26.1625 28.1248 23.75V16.25C28.1248 13.8375 26.1624 11.875 23.7499 11.875H16.25C13.8375 11.875 11.875 13.8375 11.875 16.25V23.75C11.875 26.1625 13.8375 28.125 16.25 28.125H23.7499Z" fill="white"/>
<path fill-rule="evenodd" clip-rule="evenodd" d="M15 20C15 17.2387 17.2387 15 20 15C22.7612 15 24.9999 17.2387 24.9999 20C24.9999 22.7613 22.7612 25 20 25C17.2387 25 15 22.7613 15 20ZM16.875 20C16.875 21.7225 18.2775 23.125 20 23.125C21.7224 23.125 23.1249 21.7225 23.1249 20C23.1249 18.2763 21.7224 16.875 20 16.875C18.2775 16.875 16.875 18.2763 16.875 20Z" fill="white"/>
<ellipse cx="25.3772" cy="14.4162" rx="0.666248" ry="0.666246" fill="white"/>
</svg>
