<svg width="35" height="28" viewBox="0 0 35 28" fill="none" xmlns="http://www.w3.org/2000/svg">
<path d="M33.75 0H1.25C0.918479 0 0.600537 0.134091 0.366116 0.372773C0.131696 0.611456 0 0.935179 0 1.27273V26.7273C0 27.0648 0.131696 27.3885 0.366116 27.6272C0.600537 27.8659 0.918479 28 1.25 28H33.75C34.0815 28 34.3995 27.8659 34.6339 27.6272C34.8683 27.3885 35 27.0648 35 26.7273V1.27273C35 0.935179 34.8683 0.611456 34.6339 0.372773C34.3995 0.134091 34.0815 0 33.75 0ZM18.2672 16.2774C18.0478 16.451 17.7779 16.5453 17.5 16.5453C17.2221 16.5453 16.9522 16.451 16.7328 16.2774L4.49609 6.58716L6.03047 4.57784L17.5 13.6603L28.9695 4.57784L30.5039 6.58716L18.2672 16.2774Z" fill="#E9D73B"/>
</svg>
