<svg width="40" height="40" viewBox="0 0 40 40" fill="none" xmlns="http://www.w3.org/2000/svg">
<rect width="40" height="40" fill="#22B07A"/>
<path d="M29.2857 12H10.7143C10.5248 12 10.3432 12.0766 10.2092 12.213C10.0753 12.3494 10 12.5344 10 12.7273V27.2727C10 27.4656 10.0753 27.6506 10.2092 27.787C10.3432 27.9234 10.5248 28 10.7143 28H29.2857C29.4752 28 29.6568 27.9234 29.7908 27.787C29.9247 27.6506 30 27.4656 30 27.2727V12.7273C30 12.5344 29.9247 12.3494 29.7908 12.213C29.6568 12.0766 29.4752 12 29.2857 12ZM20.4384 21.3014C20.313 21.4006 20.1588 21.4545 20 21.4545C19.8412 21.4545 19.687 21.4006 19.5616 21.3014L12.5692 15.7641L13.446 14.6159L20 19.8059L26.554 14.6159L27.4308 15.7641L20.4384 21.3014Z" fill="white"/>
</svg>
