<svg width="422" height="490" viewBox="0 0 422 490" fill="none" xmlns="http://www.w3.org/2000/svg">
<path d="M203.978 490C165.189 490 127.291 485.76 90.2852 477.281C53.7253 468.356 23.6302 456.53 0 441.803L50.8273 326.667C73.1199 339.608 98.0877 350.096 125.731 358.128C153.373 365.715 179.902 369.508 205.315 369.508C227.162 369.508 242.767 367.5 252.13 363.484C261.493 359.021 266.174 352.55 266.174 344.071C266.174 334.253 259.932 326.89 247.448 321.981C235.41 317.072 215.347 311.717 187.258 305.915C151.144 298.329 121.049 290.296 96.973 281.817C72.897 272.892 51.9419 258.611 34.1078 238.975C16.2736 218.893 7.35658 191.894 7.35658 157.978C7.35658 128.525 15.6049 101.749 32.1014 77.6503C48.598 53.5519 73.1199 34.5856 105.667 20.7513C138.66 6.91711 178.564 0 225.379 0C257.48 0 288.913 3.57011 319.677 10.7104C350.886 17.4043 378.306 27.4453 401.937 40.8333L354.453 155.301C308.53 132.095 265.06 120.492 224.041 120.492C183.469 120.492 163.182 130.31 163.182 149.945C163.182 159.317 169.201 166.457 181.239 171.366C193.277 175.829 213.118 180.738 240.761 186.093C276.429 192.787 306.524 200.597 331.046 209.522C355.568 218.001 376.746 232.058 394.58 251.694C412.86 271.33 422 298.106 422 332.022C422 361.475 413.752 388.251 397.255 412.35C380.759 436.002 356.014 454.968 323.021 469.249C290.473 483.083 250.792 490 203.978 490Z" fill="white"/>
</svg>
