<svg width="90" height="90" viewBox="0 0 90 90" fill="none" xmlns="http://www.w3.org/2000/svg">
<g clip-path="url(#clip0)">
<path d="M15.8292 69.6004C14.5692 69.6004 13.358 69.9149 12.2834 70.5054C6.6227 63.249 3.51562 54.2347 3.51562 45C3.51562 22.1251 22.1251 3.51562 45 3.51562C47.7809 3.51562 50.5605 3.79234 53.2617 4.33823C54.212 4.53049 55.1404 3.91525 55.3326 2.96356C55.5249 2.01187 54.9097 1.0849 53.958 0.891953C51.0281 0.300064 48.0144 0 45 0C32.9803 0 21.6795 4.68086 13.1802 13.1802C4.68086 21.6795 0 32.9803 0 45C0 55.1109 3.43323 64.978 9.68376 72.8881C8.87901 74.0904 8.44643 75.5035 8.44643 76.9833C8.44643 78.9553 9.21478 80.8092 10.6094 82.2031C12.0033 83.5977 13.8572 84.3661 15.8292 84.3661C17.8013 84.3661 19.6552 83.5977 21.0498 82.2031C22.4444 80.8092 23.2121 78.9546 23.2121 76.9826C23.2121 75.0112 22.4444 73.1566 21.0498 71.7627C19.6552 70.3681 17.8013 69.6004 15.8292 69.6004ZM18.5635 79.7175C17.8336 80.4481 16.862 80.8504 15.8292 80.8504C14.7965 80.8504 13.8256 80.4481 13.095 79.7175C12.3644 78.9869 11.9621 78.016 11.9621 76.9833C11.9621 75.9499 12.3644 74.9789 13.095 74.2484C13.8249 73.5178 14.7965 73.1161 15.8292 73.1161C16.862 73.1161 17.8329 73.5184 18.5635 74.2484C19.2941 74.9789 19.6964 75.9499 19.6964 76.9833C19.6964 78.016 19.2941 78.9869 18.5635 79.7175Z" fill="#313131"/>
<path d="M80.3149 17.1098C82.2259 14.2431 81.9189 10.3237 79.3914 7.79616C77.9968 6.40227 76.1429 5.63391 74.1708 5.63391C72.1988 5.63391 70.3448 6.40227 68.9502 7.79616C67.5557 9.19074 66.788 11.0447 66.788 13.0167C66.788 14.9888 67.5557 16.8427 68.9502 18.2373C70.3448 19.6319 72.1988 20.3995 74.1708 20.3995C75.4308 20.3995 76.642 20.0851 77.7166 19.4945C83.3774 26.7517 86.4844 35.7653 86.4844 45C86.4844 67.8749 67.875 86.4844 45 86.4844C42.2466 86.4844 39.4931 86.2131 36.8173 85.6776C35.8656 85.4874 34.9393 86.1047 34.7484 87.0563C34.5582 88.0087 35.1755 88.9343 36.1272 89.1252C39.0296 89.7054 42.0152 90 45 90C57.0198 90 68.3206 85.3191 76.8199 76.8198C85.3192 68.3205 90.0001 57.0197 90.0001 45C90.0001 34.8884 86.5661 25.0207 80.3149 17.1098ZM71.4366 15.7516C70.706 15.021 70.3036 14.0501 70.3036 13.0167C70.3036 11.984 70.706 11.0131 71.4366 10.2825C72.1665 9.55191 73.1381 9.14954 74.1708 9.14954C75.2035 9.14954 76.1751 9.55191 76.9057 10.2825C78.4129 11.7904 78.4129 14.2438 76.9057 15.7516C76.1751 16.4815 75.2035 16.8839 74.1708 16.8839C73.1374 16.8839 72.1665 16.4815 71.4366 15.7516Z" fill="#313131"/>
<path d="M37.7462 75.2344C37.7462 76.2053 38.5338 76.9922 39.504 76.9922H50.4952C51.4661 76.9922 52.253 76.2053 52.253 75.2344V71.8266C54.5642 71.2045 56.7738 70.2885 58.8503 69.0923L61.2563 71.4983C61.5859 71.8279 62.0329 72.0133 62.4998 72.0133C62.9653 72.0133 63.413 71.8279 63.7426 71.4977L71.5113 63.7234C72.1973 63.0368 72.1973 61.9238 71.5113 61.2378L69.1081 58.8345C70.3042 56.7581 71.2202 54.5485 71.8423 52.2372H75.2371C76.208 52.2372 76.9949 51.4503 76.9949 50.4794V39.4883C76.9949 38.5174 76.208 37.7305 75.2371 37.7305H71.8416C71.2195 35.4199 70.3042 33.2103 69.1081 31.1339L71.4983 28.7437C71.8279 28.4141 72.0133 27.9664 72.0133 27.5002C72.0126 27.0339 71.8272 26.5862 71.4976 26.2566L63.7227 18.4879C63.0367 17.802 61.9237 17.802 61.237 18.4886L58.8503 20.8761C56.7738 19.6799 54.5642 18.764 52.253 18.1419V14.7656C52.253 13.7947 51.4661 13.0078 50.4952 13.0078H39.504C38.5338 13.0078 37.7462 13.7947 37.7462 14.7656V18.1425C35.4357 18.764 33.226 19.6799 31.1496 20.8761L28.7621 18.4886C28.0762 17.8027 26.9631 17.802 26.2765 18.4879L18.5023 26.2573C18.172 26.5869 17.9866 27.0339 17.9866 27.5002C17.9866 27.9664 18.172 28.4141 18.5016 28.7437L20.8918 31.1339C19.6957 33.2103 18.7797 35.4192 18.1576 37.7305H14.769C13.7981 37.7305 13.0112 38.5174 13.0112 39.4876L13.005 50.4787C13.0043 50.945 13.1897 51.3927 13.5193 51.7223C13.8489 52.0518 14.2959 52.2372 14.7628 52.2372H18.1576C18.7797 54.5485 19.6957 56.7581 20.8918 58.8345L18.4886 61.2378C17.8026 61.9238 17.8019 63.0368 18.4886 63.7234L26.2573 71.4977C26.5869 71.8272 27.0339 72.0133 27.5001 72.0133H27.5008C27.967 72.0133 28.414 71.8279 28.7436 71.4983L31.1489 69.0923C33.226 70.2885 35.4357 71.2045 37.7462 71.8266V75.2344ZM31.8383 65.3954C31.1427 64.9457 30.2274 65.0432 29.6411 65.6289L27.5008 67.7692L22.217 62.4813L24.3553 60.3424C24.941 59.7567 25.0385 58.8414 24.5887 58.1458C22.995 55.6794 21.8744 52.9761 21.2592 50.11C21.0848 49.3005 20.3693 48.7216 19.5405 48.7216H16.5213L16.5254 41.2461H19.5405C20.3693 41.2461 21.0848 40.668 21.2592 39.8577C21.8744 36.9923 22.995 34.289 24.5887 31.8226C25.0385 31.127 24.941 30.2117 24.3553 29.626L22.2308 27.5008L27.5186 22.2171L29.6411 24.3402C30.2274 24.9259 31.1421 25.0227 31.8383 24.5737C34.3041 22.98 37.0074 21.8594 39.8734 21.2441C40.683 21.0697 41.2618 20.3535 41.2618 19.5255V16.5234H48.7374V19.5248C48.7374 20.3535 49.3155 21.0697 50.1258 21.2434C52.9911 21.8594 55.6951 22.9793 58.1609 24.573C58.8564 25.0227 59.7717 24.9259 60.3575 24.3395L62.4806 22.2171L67.7684 27.5008L65.6439 29.6253C65.0575 30.2117 64.9607 31.127 65.4105 31.8226C67.0042 34.289 68.1241 36.9923 68.74 39.8577C68.9137 40.668 69.6299 41.2461 70.4587 41.2461H73.4792V48.7216H70.4587C69.6299 48.7216 68.9144 49.3005 68.74 50.11C68.1248 52.9754 67.0042 55.6794 65.4105 58.1451C64.9607 58.8414 65.0582 59.7567 65.6439 60.3424L67.7822 62.4806L62.4984 67.7685L60.3581 65.6289C59.7717 65.0425 58.8564 64.9457 58.1609 65.3954C55.6944 66.9891 52.9911 68.1091 50.1258 68.725C49.3155 68.8994 48.7374 69.6149 48.7374 70.4436V73.4766H41.2618V70.4436C41.2618 69.6156 40.683 68.8994 39.8734 68.725C37.0081 68.1097 34.3048 66.9891 31.8383 65.3954Z" fill="#313131"/>
<path d="M59.5246 45C59.5246 36.9909 53.009 30.4753 45 30.4753C36.9909 30.4753 30.4753 36.9909 30.4753 45C30.4753 53.009 36.9909 59.5246 45 59.5246C53.009 59.5246 59.5246 53.009 59.5246 45ZM33.991 45C33.991 38.9293 38.9293 33.991 45 33.991C51.0706 33.991 56.009 38.93 56.009 45C56.009 51.0699 51.0706 56.009 45 56.009C38.9293 56.009 33.991 51.0706 33.991 45Z" fill="#313131"/>
<path d="M61.1857 6.64806C61.6485 6.64806 62.1017 6.45992 62.4285 6.13307C62.7553 5.80417 62.9435 5.35098 62.9435 4.88818C62.9435 4.42813 62.756 3.97426 62.4285 3.64536C62.1017 3.31851 61.6485 3.13037 61.1857 3.13037C60.7215 3.13037 60.2704 3.31851 59.9435 3.64536C59.616 3.97426 59.4279 4.42607 59.4279 4.88818C59.4279 5.35236 59.616 5.80417 59.9435 6.13307C60.2704 6.45992 60.7215 6.64806 61.1857 6.64806Z" fill="#313131"/>
<path d="M28.8912 83.3835C28.4291 83.3835 27.9753 83.5717 27.6484 83.8985C27.3216 84.2254 27.1334 84.6792 27.1334 85.1414C27.1334 85.6055 27.3216 86.0573 27.6484 86.3842C27.9753 86.711 28.4291 86.8992 28.8912 86.8992C29.3533 86.8992 29.8072 86.711 30.1341 86.3842C30.4609 86.0573 30.649 85.6035 30.649 85.1414C30.649 84.6792 30.4609 84.2254 30.1341 83.8985C29.8072 83.5717 29.3533 83.3835 28.8912 83.3835Z" fill="#313131"/>
</g>
<defs>
<clipPath id="clip0">
<rect width="90" height="90" fill="white"/>
</clipPath>
</defs>
</svg>
