<svg width="86" height="86" viewBox="0 0 86 86" fill="none" xmlns="http://www.w3.org/2000/svg">
<path d="M45.032 41.3574L49.2507 44.1699C49.561 44.3769 49.9408 44.4521 50.3066 44.3791C50.6724 44.306 50.9942 44.0906 51.2012 43.7803C51.4082 43.47 51.4834 43.0902 51.4104 42.7244C51.3373 42.3586 51.122 42.0369 50.8117 41.8299L47.3495 39.5208L48.6053 31.9819C48.6542 31.6881 48.6086 31.3863 48.4751 31.1201C48.3415 30.8539 48.1268 30.637 47.862 30.5006C47.5973 30.3642 47.296 30.3154 47.0017 30.3612C46.7074 30.4071 46.4352 30.5452 46.2245 30.7557L34.9745 42.0057C34.8274 42.1527 34.7147 42.3306 34.6447 42.5265C34.5746 42.7224 34.5489 42.9313 34.5693 43.1383C34.5898 43.3453 34.6559 43.5452 34.7629 43.7236C34.8699 43.902 35.0152 44.0544 35.1882 44.1699L38.6504 46.4789L37.3946 54.0178C37.3457 54.3116 37.3913 54.6134 37.5248 54.8796C37.6584 55.1459 37.873 55.3628 38.1378 55.4992C38.4026 55.6356 38.7039 55.6844 38.9982 55.6385C39.2925 55.5927 39.5646 55.4546 39.7754 55.2441L46.9276 48.0919C47.1838 47.8267 47.3255 47.4715 47.3223 47.1027C47.3191 46.734 47.1712 46.3813 46.9105 46.1206C46.6497 45.8599 46.297 45.712 45.9283 45.7088C45.5596 45.7056 45.2044 45.8473 44.9392 46.1035L40.8906 50.1521L41.574 46.0444C41.6197 45.7765 41.5867 45.5011 41.4792 45.2515C41.3716 45.002 41.194 44.7889 40.9679 44.6382L38.1765 42.7819L45.1093 35.8477L44.4259 39.9553C44.3811 40.2226 44.4145 40.4971 44.522 40.7458C44.6295 40.9946 44.8066 41.2069 45.032 41.3574Z" fill="#313131"/>
<path d="M13.6388 65.3298C13.9169 65.3297 14.1888 65.2472 14.42 65.0927C14.6512 64.9382 14.8314 64.7186 14.9378 64.4616C15.0442 64.2047 15.072 63.922 15.0178 63.6493C14.9636 63.3765 14.8297 63.126 14.6331 62.9293C13.5621 61.9057 12.1377 61.3345 10.6562 61.3345C9.17472 61.3345 7.75029 61.9057 6.67931 62.9293C6.545 63.059 6.43787 63.2142 6.36417 63.3858C6.29047 63.5573 6.25168 63.7419 6.25005 63.9286C6.24843 64.1153 6.28401 64.3005 6.35472 64.4733C6.42543 64.6461 6.52984 64.8031 6.66188 64.9352C6.79392 65.0672 6.95093 65.1716 7.12375 65.2423C7.29657 65.313 7.48175 65.3486 7.66847 65.347C7.85519 65.3454 8.03972 65.3066 8.21129 65.2329C8.38286 65.1592 8.53803 65.0521 8.66775 64.9177C9.20332 64.4061 9.9155 64.1206 10.6562 64.1206C11.3969 64.1206 12.1091 64.4061 12.6446 64.9177C12.9083 65.1815 13.2659 65.3297 13.6388 65.3298Z" fill="#313131"/>
<path d="M17.6172 61.3515C17.8953 61.3514 18.1672 61.2689 18.3984 61.1144C18.6296 60.9599 18.8097 60.7403 18.9162 60.4833C19.0226 60.2264 19.0504 59.9437 18.9962 59.671C18.9419 59.3982 18.8081 59.1477 18.6115 58.951C17.5668 57.9063 16.3266 57.0776 14.9616 56.5122C13.5967 55.9468 12.1337 55.6558 10.6563 55.6558C9.17888 55.6558 7.71593 55.9468 6.35098 56.5122C4.98603 57.0776 3.74581 57.9063 2.70115 58.951C2.44499 59.2162 2.30325 59.5715 2.30645 59.9402C2.30965 60.3089 2.45755 60.6616 2.71828 60.9223C2.97901 61.1831 3.33171 61.3309 3.70043 61.3341C4.06914 61.3374 4.42436 61.1956 4.68958 60.9395C5.4731 60.1558 6.4033 59.5342 7.42708 59.1101C8.45086 58.6859 9.54815 58.4677 10.6563 58.4677C11.7645 58.4677 12.8617 58.6859 13.8855 59.1101C14.9093 59.5342 15.8395 60.1558 16.623 60.9395C16.7532 61.0705 16.9082 61.1744 17.0788 61.2451C17.2495 61.3158 17.4325 61.352 17.6172 61.3515Z" fill="#313131"/>
<path d="M10.6562 69.7188C11.4329 69.7188 12.0625 69.0892 12.0625 68.3125C12.0625 67.5358 11.4329 66.9062 10.6562 66.9062C9.8796 66.9062 9.25 67.5358 9.25 68.3125C9.25 69.0892 9.8796 69.7188 10.6562 69.7188Z" fill="#313131"/>
<path d="M82.375 17.9462V17.5327C83.7316 16.1482 84.6492 14.394 85.0128 12.49C85.3764 10.5861 85.1698 8.61716 84.4188 6.83016C83.6679 5.04316 82.4062 3.51763 80.7917 2.44485C79.1773 1.37207 77.2821 0.799805 75.3438 0.799805C73.4054 0.799805 71.5102 1.37207 69.8958 2.44485C68.2813 3.51763 67.0196 5.04316 66.2687 6.83016C65.5177 8.61716 65.3111 10.5861 65.6747 12.49C66.0383 14.394 66.9559 16.1482 68.3125 17.5327V17.9476C67.4819 18.2372 66.7635 18.7807 66.2589 19.5012C65.7543 20.2217 65.4891 21.0827 65.5009 21.9623C65.5128 22.8418 65.801 23.6954 66.3247 24.4021C66.8485 25.1087 67.5813 25.6328 68.4194 25.8999C68.5757 26.8195 68.915 27.6983 69.4172 28.4844C69.9194 29.2704 70.5742 29.9476 71.343 30.4759C71.2045 30.8866 71.131 31.3165 71.125 31.7499C71.1286 32.6194 71.4007 33.4664 71.9042 34.1753C72.4076 34.8841 73.1178 35.4201 73.9375 35.7099V44.4062H59.875V41.5937C59.875 41.2207 59.7268 40.863 59.4631 40.5993C59.1994 40.3356 58.8417 40.1874 58.4688 40.1874C58.0958 40.1874 57.7381 40.3356 57.4744 40.5993C57.2107 40.863 57.0625 41.2207 57.0625 41.5937V54.2499C57.0625 54.6229 57.2107 54.9806 57.4744 55.2443C57.7381 55.508 58.0958 55.6562 58.4688 55.6562H61.2812V58.4687H23.3125C22.9395 58.4687 22.5819 58.6168 22.3181 58.8806C22.0544 59.1443 21.9062 59.502 21.9062 59.8749C21.9062 60.2479 22.0544 60.6056 22.3181 60.8693C22.5819 61.133 22.9395 61.2812 23.3125 61.2812H30.3438V79.5624H23.0537C22.8437 78.9743 22.5056 78.4401 22.064 77.9985C21.6223 77.5568 21.0882 77.2188 20.5 77.0087V75.3437C20.5 74.9707 20.3518 74.613 20.0881 74.3493C19.8244 74.0856 19.4667 73.9374 19.0938 73.9374H17.6875V69.7187C17.6875 69.3457 17.5393 68.988 17.2756 68.7243C17.0119 68.4606 16.6542 68.3124 16.2812 68.3124C15.9083 68.3124 15.5506 68.4606 15.2869 68.7243C15.0232 68.988 14.875 69.3457 14.875 69.7187V73.9374H6.4375V69.7187C6.4375 69.3457 6.28934 68.988 6.02562 68.7243C5.7619 68.4606 5.40421 68.3124 5.03125 68.3124C4.65829 68.3124 4.3006 68.4606 4.03688 68.7243C3.77316 68.988 3.625 69.3457 3.625 69.7187V73.9374H2.21875C1.84579 73.9374 1.4881 74.0856 1.22438 74.3493C0.960658 74.613 0.8125 74.9707 0.8125 75.3437V80.9687C0.8125 82.0876 1.25697 83.1606 2.04814 83.9518C2.83931 84.743 3.91237 85.1874 5.03125 85.1874H12.0625C12.4355 85.1874 12.7931 85.0393 13.0569 84.7756C13.3206 84.5118 13.4688 84.1542 13.4688 83.7812C13.4688 83.4082 13.3206 83.0505 13.0569 82.7868C12.7931 82.5231 12.4355 82.3749 12.0625 82.3749H5.03125C4.65829 82.3749 4.3006 82.2268 4.03688 81.9631C3.77316 81.6993 3.625 81.3417 3.625 80.9687V76.7499H17.6875V77.0087C17.0161 77.2446 16.4154 77.647 15.9418 78.1781C15.4681 78.7092 15.1368 79.3518 14.9789 80.0457C14.821 80.7396 14.8416 81.4623 15.0389 82.1461C15.2361 82.8299 15.6035 83.4525 16.1067 83.9557C16.61 84.4589 17.2326 84.8263 17.9164 85.0236C18.6002 85.2208 19.3228 85.2415 20.0167 85.0836C20.7107 84.9257 21.3532 84.5944 21.8843 84.1207C22.4155 83.647 22.8178 83.0464 23.0537 82.3749H31.75C32.123 82.3749 32.4806 82.2268 32.7444 81.9631C33.0081 81.6993 33.1562 81.3417 33.1562 80.9687V61.2812H45.8125V72.5312C45.8125 72.9042 45.9607 73.2618 46.2244 73.5256C46.4881 73.7893 46.8458 73.9374 47.2188 73.9374H55.915C56.1251 74.5256 56.4632 75.0598 56.9048 75.5014C57.3464 75.943 57.8806 76.2811 58.4688 76.4912V78.1562C58.4688 78.5292 58.6169 78.8868 58.8806 79.1506C59.1444 79.4143 59.502 79.5624 59.875 79.5624H64.0938V82.3749H61.2812C60.9083 82.3749 60.5506 82.5231 60.2869 82.7868C60.0232 83.0505 59.875 83.4082 59.875 83.7812C59.875 84.1542 60.0232 84.5118 60.2869 84.7756C60.5506 85.0393 60.9083 85.1874 61.2812 85.1874H80.9688C81.3417 85.1874 81.6994 85.0393 81.9631 84.7756C82.2268 84.5118 82.375 84.1542 82.375 83.7812C82.375 83.4082 82.2268 83.0505 81.9631 82.7868C81.6994 82.5231 81.3417 82.3749 80.9688 82.3749H78.1562V79.5624H82.375C82.5656 79.5619 82.7541 79.5227 82.9291 79.4471C82.9614 79.4331 82.9839 79.4049 83.0148 79.3895C83.1545 79.3202 83.2818 79.2286 83.3917 79.1181C83.4002 79.1082 83.4114 79.1054 83.4198 79.097C83.4594 79.0414 83.4942 78.9826 83.5239 78.9212C83.5858 78.8393 83.6382 78.7506 83.68 78.6568C83.712 78.5597 83.7323 78.4592 83.7405 78.3573C83.759 78.2914 83.7727 78.2241 83.7812 78.1562V65.4999C83.7812 65.127 83.6331 64.7693 83.3694 64.5056C83.1056 64.2418 82.748 64.0937 82.375 64.0937H59.875C59.502 64.0937 59.1444 64.2418 58.8806 64.5056C58.6169 64.7693 58.4688 65.127 58.4688 65.4999V68.5712C57.8806 68.7813 57.3464 69.1193 56.9048 69.561C56.4632 70.0026 56.1251 70.5368 55.915 71.1249H48.625V61.2812H62.6875C63.0605 61.2812 63.4181 61.133 63.6819 60.8693C63.9456 60.6056 64.0938 60.2479 64.0938 59.8749V54.2499C64.0938 53.877 63.9456 53.5193 63.6819 53.2556C63.4181 52.9918 63.0605 52.8437 62.6875 52.8437H59.875V47.2187H75.3438C75.7167 47.2187 76.0744 47.0705 76.3381 46.8068C76.6018 46.5431 76.75 46.1854 76.75 45.8124V35.7099C77.5697 35.4201 78.2799 34.8841 78.7833 34.1753C79.2868 33.4664 79.5589 32.6194 79.5625 31.7499C79.5567 31.316 79.4831 30.8857 79.3445 30.4745C80.1133 29.9462 80.7681 29.269 81.2703 28.4829C81.7725 27.6969 82.1118 26.8181 82.2681 25.8985C83.1062 25.6314 83.839 25.1073 84.3628 24.4006C84.8865 23.694 85.1747 22.8404 85.1866 21.9609C85.1984 21.0813 84.9332 20.2203 84.4286 19.4998C83.924 18.7793 83.2056 18.2358 82.375 17.9462ZM19.0938 82.3749C18.8156 82.3749 18.5437 82.2925 18.3125 82.1379C18.0812 81.9834 17.901 81.7638 17.7945 81.5068C17.6881 81.2499 17.6603 80.9671 17.7145 80.6943C17.7688 80.4216 17.9027 80.171 18.0994 79.9743C18.296 79.7776 18.5466 79.6437 18.8194 79.5895C19.0922 79.5352 19.3749 79.563 19.6319 79.6695C19.8889 79.7759 20.1085 79.9562 20.263 80.1874C20.4175 80.4187 20.5 80.6906 20.5 80.9687C20.5 81.3417 20.3518 81.6993 20.0881 81.9631C19.8244 82.2268 19.4667 82.3749 19.0938 82.3749ZM75.3438 82.3749H66.9062V79.5624H75.3438V82.3749ZM80.9688 74.9992L71.9772 66.9062H80.9688V74.9992ZM67.7725 66.9062L78.7103 76.7499H61.2812V76.4912C62.1033 76.2048 62.8158 75.6697 63.32 74.9601C63.8242 74.2506 64.0951 73.4017 64.0951 72.5312C64.0951 71.6607 63.8242 70.8118 63.32 70.1022C62.8158 69.3927 62.1033 68.8576 61.2812 68.5712V66.9062H67.7725ZM59.875 71.1249C60.1531 71.1249 60.425 71.2074 60.6563 71.3619C60.8875 71.5165 61.0678 71.7361 61.1742 71.993C61.2806 72.25 61.3085 72.5328 61.2542 72.8055C61.2 73.0783 61.066 73.3289 60.8694 73.5256C60.6727 73.7222 60.4221 73.8562 60.1493 73.9104C59.8766 73.9647 59.5938 73.9368 59.3369 73.8304C59.0799 73.724 58.8603 73.5437 58.7057 73.3125C58.5512 73.0812 58.4688 72.8093 58.4688 72.5312C58.4688 72.1582 58.6169 71.8005 58.8806 71.5368C59.1444 71.2731 59.502 71.1249 59.875 71.1249ZM75.3438 3.62493C76.7672 3.62331 78.1576 4.05429 79.3305 4.86076C80.5035 5.66722 81.4037 6.81109 81.9118 8.14077C82.42 9.47045 82.5121 10.9231 82.1759 12.3063C81.8397 13.6895 81.0911 14.9379 80.0294 15.886C79.8825 16.0179 79.765 16.1792 79.6846 16.3595C79.6041 16.5397 79.5625 16.7349 79.5625 16.9323V17.6874H76.75V14.0509L79.1505 11.6504C79.4066 11.3852 79.5484 11.03 79.5452 10.6612C79.542 10.2925 79.3941 9.93982 79.1333 9.67909C78.8726 9.41836 78.5199 9.27047 78.1512 9.26727C77.7825 9.26406 77.4273 9.4058 77.162 9.66196L75.3438 11.4802L73.5255 9.66196C73.2602 9.4058 72.905 9.26406 72.5363 9.26727C72.1676 9.27047 71.8149 9.41836 71.5542 9.67909C71.2934 9.93982 71.1455 10.2925 71.1423 10.6612C71.1391 11.03 71.2809 11.3852 71.537 11.6504L73.9375 14.0509V17.6874H71.125V16.9323C71.125 16.7345 71.0833 16.539 71.0026 16.3585C70.9219 16.178 70.804 16.0165 70.6567 15.8846C69.5954 14.9363 68.8473 13.6879 68.5114 12.3048C68.1756 10.9218 68.2679 9.46929 68.7762 8.13986C69.2844 6.81044 70.1846 5.66682 71.3575 4.86053C72.5303 4.05424 73.9205 3.62335 75.3438 3.62493ZM71.3753 26.1249H79.3122C79.0073 26.9904 78.4262 27.7317 77.6584 28.2343C76.9725 27.7785 76.1673 27.5354 75.3438 27.5354C74.5202 27.5354 73.715 27.7785 73.0291 28.2343C72.2613 27.7317 71.6802 26.9904 71.3753 26.1249ZM75.3438 33.1562C75.0656 33.1562 74.7937 33.0737 74.5625 32.9192C74.3312 32.7647 74.151 32.545 74.0445 32.2881C73.9381 32.0311 73.9103 31.7484 73.9645 31.4756C74.0188 31.2028 74.1527 30.9522 74.3494 30.7556C74.5461 30.5589 74.7966 30.425 75.0694 30.3707C75.3422 30.3164 75.6249 30.3443 75.8819 30.4507C76.1389 30.5572 76.3585 30.7374 76.513 30.9687C76.6675 31.1999 76.75 31.4718 76.75 31.7499C76.75 32.1229 76.6018 32.4806 76.3381 32.7443C76.0744 33.008 75.7167 33.1562 75.3438 33.1562ZM80.9688 23.3124H69.7188C69.3458 23.3124 68.9881 23.1643 68.7244 22.9006C68.4607 22.6368 68.3125 22.2791 68.3125 21.9062C68.3125 21.5332 68.4607 21.1755 68.7244 20.9118C68.9881 20.6481 69.3458 20.4999 69.7188 20.4999H80.9688C81.3417 20.4999 81.6994 20.6481 81.9631 20.9118C82.2268 21.1755 82.375 21.5332 82.375 21.9062C82.375 22.2791 82.2268 22.6368 81.9631 22.9006C81.6994 23.1643 81.3417 23.3124 80.9688 23.3124Z" fill="#313131"/>
<path d="M2.21875 37.3755H9.25V44.4067C9.25 44.7797 9.39816 45.1374 9.66188 45.4011C9.9256 45.6648 10.2833 45.813 10.6562 45.813H26.125V52.8442H23.3125C22.9395 52.8442 22.5819 52.9924 22.3181 53.2561C22.0544 53.5198 21.9062 53.8775 21.9062 54.2505C21.9062 54.6234 22.0544 54.9811 22.3181 55.2449C22.5819 55.5086 22.9395 55.6567 23.3125 55.6567H27.5312C27.9042 55.6567 28.2619 55.5086 28.5256 55.2449C28.7893 54.9811 28.9375 54.6234 28.9375 54.2505V35.9692C28.9375 35.5963 28.7893 35.2386 28.5256 34.9749C28.2619 34.7111 27.9042 34.563 27.5312 34.563H21.9062V33.9794L43 22.1135L49.3422 25.6811C49.5561 25.8013 49.7978 25.8635 50.0431 25.8615C50.2885 25.8594 50.5291 25.7931 50.7409 25.6693C50.9528 25.5454 51.1285 25.3683 51.2507 25.1555C51.3729 24.9427 51.4373 24.7017 51.4375 24.4563V21.9067H55.6562V28.4106C55.6562 28.6603 55.7226 28.9055 55.8486 29.121C55.9747 29.3365 56.1558 29.5146 56.3734 29.6369L64.0938 33.9794V34.563H58.4688C58.0958 34.563 57.7381 34.7111 57.4744 34.9749C57.2107 35.2386 57.0625 35.5963 57.0625 35.9692C57.0625 36.3422 57.2107 36.6999 57.4744 36.9636C57.7381 37.2273 58.0958 37.3755 58.4688 37.3755H65.5C65.873 37.3755 66.2306 37.2273 66.4944 36.9636C66.7581 36.6999 66.9062 36.3422 66.9062 35.9692V33.1567C66.9063 32.9071 66.8399 32.6619 66.7139 32.4464C66.5878 32.2309 66.4067 32.0528 66.1891 31.9305L58.4688 27.588V20.5005C58.4688 20.1275 58.3206 19.7698 58.0569 19.5061C57.7931 19.2424 57.4355 19.0942 57.0625 19.0942H50.0312C49.6583 19.0942 49.3006 19.2424 49.0369 19.5061C48.7732 19.7698 48.625 20.1275 48.625 20.5005V22.0474L43.6905 19.27C43.4796 19.1524 43.2422 19.0907 43.0007 19.0907C42.7593 19.0907 42.5218 19.1524 42.3109 19.27L19.8109 31.9263C19.5927 32.0489 19.4111 32.2277 19.2851 32.444C19.159 32.6603 19.0929 32.9064 19.0938 33.1567V35.9692C19.0938 36.3422 19.2419 36.6999 19.5056 36.9636C19.7694 37.2273 20.127 37.3755 20.5 37.3755H26.125V43.0005H12.0625V35.9692C12.0625 35.5963 11.9143 35.2386 11.6506 34.9749C11.3869 34.7111 11.0292 34.563 10.6562 34.563H3.625V28.938H16.2812C16.6542 28.938 17.0119 28.7898 17.2756 28.5261C17.5393 28.2624 17.6875 27.9047 17.6875 27.5317V24.7192C17.6875 24.3463 17.5393 23.9886 17.2756 23.7249C17.0119 23.4611 16.6542 23.313 16.2812 23.313C15.9083 23.313 15.5506 23.4611 15.2869 23.7249C15.0232 23.9886 14.875 24.3463 14.875 24.7192V26.1255H12.0625V20.5005H19.0938C19.4072 20.5005 19.7117 20.3957 19.9589 20.2028C20.206 20.01 20.3816 19.7401 20.4578 19.436L24.6766 2.56096C24.7285 2.35361 24.7325 2.13714 24.6882 1.92802C24.644 1.71889 24.5526 1.52261 24.4211 1.35409C24.2896 1.18558 24.1214 1.04926 23.9293 0.955493C23.7372 0.86173 23.5263 0.812994 23.3125 0.812988H6.4375C6.12401 0.812997 5.81951 0.917757 5.57236 1.11063C5.32522 1.3035 5.14962 1.57342 5.07344 1.87752L0.854687 18.7525C0.802744 18.9599 0.798755 19.1763 0.843022 19.3855C0.887289 19.5946 0.978648 19.7909 1.11015 19.9594C1.24166 20.1279 1.40986 20.2642 1.60195 20.358C1.79405 20.4517 2.00499 20.5005 2.21875 20.5005H9.25V26.1255H2.21875C1.84579 26.1255 1.4881 26.2736 1.22438 26.5374C0.960658 26.8011 0.8125 27.1588 0.8125 27.5317V35.9692C0.8125 36.3422 0.960658 36.6999 1.22438 36.9636C1.4881 37.2273 1.84579 37.3755 2.21875 37.3755ZM6.12953 9.25049H8.85484L8.15172 12.063H5.42641L6.12953 9.25049ZM15.8861 3.62549L15.183 6.43799H12.4577L13.1608 3.62549H15.8861ZM19.4017 12.063H16.6764L17.3795 9.25049H20.1048L19.4017 12.063ZM9.64516 17.688L10.3483 14.8755H13.0736L12.3705 17.688H9.64516ZM13.7767 12.063H11.0514L11.7545 9.25049H14.4798L13.7767 12.063ZM17.9955 17.688H15.2702L15.9733 14.8755H18.6986L17.9955 17.688ZM20.808 6.43799H18.0827L18.7858 3.62549H21.5111L20.808 6.43799ZM7.53578 3.62549H10.2611L9.55797 6.43799H6.83266L7.53578 3.62549ZM4.72328 14.8755H7.44859L6.74547 17.688H4.02016L4.72328 14.8755Z" fill="#313131"/>
</svg>
