<svg width="49" height="49" viewBox="0 0 49 49" fill="none" xmlns="http://www.w3.org/2000/svg">
<path fill-rule="evenodd" clip-rule="evenodd" d="M49 24.5C49 38.031 38.031 49 24.5 49C10.969 49 0 38.031 0 24.5C0 10.969 10.969 0 24.5 0C38.031 0 49 10.969 49 24.5ZM23.8101 40.2052C19.999 40.2052 16.2756 39.9117 12.6398 39.3247C9.04776 38.7068 6.09091 37.888 3.76924 36.8685L7.97598 30.1538H12.3807C13.5669 30.5005 14.8141 30.8078 16.1223 31.0756C18.8382 31.6008 21.4446 31.8635 23.9415 31.8635C26.0879 31.8635 27.6211 31.7244 28.541 31.4464C29.4339 31.1465 29.8935 30.7156 29.9197 30.1538H45.1785C44.9755 31.8473 44.1826 33.4058 42.7996 34.8294C41.1788 36.4669 38.7476 37.7799 35.506 38.7686C32.3083 39.7263 28.4096 40.2052 23.8101 40.2052ZM4.64725 18.8461C4.54377 18.332 4.49203 17.7897 4.49203 17.2191C4.49203 15.18 5.30242 13.3262 6.92321 11.6579C8.544 9.98955 10.9533 8.6765 14.1511 7.71874C17.3926 6.76099 21.3132 6.28211 25.9127 6.28211C29.0667 6.28211 32.155 6.52927 35.1775 7.0236C38.2439 7.48703 40.9379 8.18217 43.2596 9.10903L38.5943 17.0337C34.0824 15.4271 29.8114 14.6239 25.7813 14.6239C21.795 14.6239 19.8019 15.3035 19.8019 16.6629C19.8019 17.3117 20.3933 17.8061 21.576 18.1459C22.4106 18.3639 23.6268 18.5973 25.2247 18.8461H4.64725Z" fill="#22B07A"/>
</svg>
